<svg width="31" height="29" viewBox="0 0 31 29" fill="none" xmlns="http://www.w3.org/2000/svg">
<path d="M14.7743 0C22.691 0.00951977 29.1061 6.42215 29.1157 14.3348C29.1157 14.3493 29.1157 14.3673 29.1157 14.3845C29.1157 17.8833 27.8456 21.0855 25.7411 23.5556L25.7577 23.5357L30.4449 28.6713H14.7743C6.85377 28.6713 0.432922 22.253 0.432922 14.3357C0.432922 6.41829 6.85377 0 14.7743 0ZM25.6877 26.5734L22.902 23.5161L23.589 22.8084C25.7092 20.6346 27.017 17.6604 27.017 14.3808C27.017 14.3649 27.017 14.349 27.0169 14.3332V14.3357C27.0169 7.5769 21.5357 2.09791 14.7743 2.09791C8.01284 2.09791 2.53166 7.57693 2.53166 14.3357C2.53166 21.0944 8.01287 26.5734 14.7743 26.5734H25.6877Z" fill="#525657"/>
</svg>
