<svg width="178" height="178" viewBox="0 0 178 178" fill="none" xmlns="http://www.w3.org/2000/svg">
<path d="M7.41666 163.167H170.583M146.702 163.241V130.163M15.575 163.167V44.7226C15.575 29.8151 22.9917 22.3242 37.7508 22.3242H83.9567C98.7158 22.3242 106.058 29.8151 106.058 44.7226V163.167M43.0167 61.1876H79.7292M43.0167 89.0001H79.7292M61.1875 163.167V135.354M146.85 80.7676C137.802 80.7676 130.533 88.0359 130.533 97.0842V113.92C130.533 122.968 137.802 130.237 146.85 130.237C155.898 130.237 163.167 122.968 163.167 113.92V97.0842C163.167 88.0359 155.898 80.7676 146.85 80.7676Z" stroke="#4B4B4B" stroke-width="4.5" stroke-miterlimit="10" stroke-linecap="round" stroke-linejoin="round"/>
</svg>
