<svg width="25" height="25" viewBox="0 0 25 25" fill="none" xmlns="http://www.w3.org/2000/svg">
<path d="M9.37499 10.4167C9.92752 10.4167 10.4574 10.1972 10.8481 9.80647C11.2388 9.41577 11.4583 8.88587 11.4583 8.33333C11.4583 7.7808 11.2388 7.25089 10.8481 6.86019C10.4574 6.46949 9.92752 6.25 9.37499 6.25C8.82246 6.25 8.29255 6.46949 7.90185 6.86019C7.51115 7.25089 7.29166 7.7808 7.29166 8.33333C7.29166 8.88587 7.51115 9.41577 7.90185 9.80647C8.29255 10.1972 8.82246 10.4167 9.37499 10.4167Z" stroke="#535657" stroke-width="1.5" stroke-linecap="round" stroke-linejoin="round"/>
<path d="M13.5417 2.08325H9.37501C4.16668 2.08325 2.08334 4.16659 2.08334 9.37492V15.6249C2.08334 20.8333 4.16668 22.9166 9.37501 22.9166H15.625C20.8333 22.9166 22.9167 20.8333 22.9167 15.6249V10.4166" stroke="#535657" stroke-width="1.5" stroke-linecap="round" stroke-linejoin="round"/>
<path d="M19.9375 2.69793L16.1562 6.47918C16.0104 6.62501 15.8646 6.90626 15.8437 7.1146L15.6354 8.56251C15.5625 9.08335 15.9271 9.44793 16.4479 9.37501L17.8958 9.16668C18.0937 9.13543 18.3854 9.00001 18.5312 8.85418L22.3125 5.07293C22.9687 4.41668 23.2708 3.66668 22.3125 2.70835C21.3437 1.72918 20.5937 2.04168 19.9375 2.69793Z" stroke="#535657" stroke-width="1.5" stroke-miterlimit="10" stroke-linecap="round" stroke-linejoin="round"/>
<path d="M19.3958 3.2395C19.7188 4.38534 20.6146 5.28117 21.7604 5.60409" stroke="#535657" stroke-width="1.5" stroke-miterlimit="10" stroke-linecap="round" stroke-linejoin="round"/>
<path d="M2.78125 19.7395L7.91667 16.2916C8.73958 15.7395 9.92708 15.802 10.6667 16.4374L11.0104 16.7395C11.8229 17.4374 13.1354 17.4374 13.9479 16.7395L18.2813 13.0208C19.0938 12.3228 20.4063 12.3228 21.2188 13.0208L22.9167 14.4791" stroke="#535657" stroke-width="1.5" stroke-linecap="round" stroke-linejoin="round"/>
</svg>
