<svg width="38" height="26" viewBox="0 0 38 26" fill="none" xmlns="http://www.w3.org/2000/svg">
<g clip-path="url(#clip0_330_164)">
<path d="M21 20.8001L24.2 22.7001C24.4 22.8001 26.9 24.5001 29.8 23.3001C32.7 22.1001 33.3 19.2001 33.4 19.0001L35.7 13.5001C37.6 8.90006 36.6 6.30006 32 4.30006L26.5 2.00006C26.3 1.80006 23.8 0.300063 20.9 1.40006C18.4 2.40006 17.5 4.70006 17.4 5.10006M32.4 4.60006L30.7 8.70006M26 1.80006L24.1 6.30006M18.5 4.10006L36 11.5001M25.9 16.7001L23.5 17.0001C22 17.2001 21.2 16.2001 21.8 14.8001L22.7 12.6001C23.3 11.2001 24.5 11.0001 25.5 12.3001L26.9 14.2001C27.9 15.4001 27.4 16.5001 25.9 16.7001Z" stroke="#139BE4" stroke-width="1.5" stroke-miterlimit="10" stroke-linecap="round" stroke-linejoin="round"/>
<path d="M1.7 22L6.6 18.7C7.4 18.2 8.5 18.2 9.2 18.8L9.5 19.1C10.3 19.8 11.5 19.8 12.3 19.1L16.5 15.5C17.3 14.8 18.5 14.8 19.3 15.5L20.9 16.9M8 25H14C19 25 21 23 21 18V12C21 7 19 5 14 5H8C3 5 1 7 1 12V18C1 23 3 25 8 25ZM8 13C8.5 13 9 12.8 9.4 12.4C9.8 12 10 11.5 10 11C10 10.5 9.8 10 9.4 9.6C9 9.2 8.5 9 8 9C7.5 9 7 9.2 6.6 9.6C6.2 10 6 10.5 6 11C6 11.5 6.2 12 6.6 12.4C7 12.8 7.5 13 8 13Z" stroke="#139BE4" stroke-width="1.5" stroke-linecap="round" stroke-linejoin="round"/>
</g>
<defs>
<clipPath id="clip0_330_164">
<rect width="38" height="26" fill="white"/>
</clipPath>
</defs>
</svg>
