<svg width="24" height="24" viewBox="0 0 24 24" fill="none" xmlns="http://www.w3.org/2000/svg">
<path d="M9.51002 4.22989L18.07 8.50989C21.91 10.4299 21.91 13.5699 18.07 15.4899L9.51002 19.7699C3.75002 22.6499 1.40002 20.2899 4.28002 14.5399L5.15002 12.8099C5.37002 12.3699 5.37002 11.6399 5.15002 11.1999L4.28002 9.45989C1.40002 3.70989 3.76002 1.34989 9.51002 4.22989ZM5.44002 11.9999H10.84Z" fill="#D9D9D9"/>
<path d="M5.44002 11.9999H10.84M9.51002 4.22989L18.07 8.50989C21.91 10.4299 21.91 13.5699 18.07 15.4899L9.51002 19.7699C3.75002 22.6499 1.40002 20.2899 4.28002 14.5399L5.15002 12.8099C5.37002 12.3699 5.37002 11.6399 5.15002 11.1999L4.28002 9.45989C1.40002 3.70989 3.76002 1.34989 9.51002 4.22989Z" stroke="#535657" stroke-width="2" stroke-linecap="round" stroke-linejoin="round"/>
</svg>
