<svg width="154" height="154" viewBox="0 0 154 154" fill="none" xmlns="http://www.w3.org/2000/svg">
<path d="M132.119 141.167C132.119 116.334 107.415 96.25 77 96.25C46.585 96.25 21.8809 116.334 21.8809 141.167M77 77C85.5091 77 93.6696 73.6198 99.6864 67.603C105.703 61.5863 109.083 53.4257 109.083 44.9167C109.083 36.4077 105.703 28.2472 99.6864 22.2304C93.6696 16.2136 85.5091 12.8334 77 12.8334C68.491 12.8334 60.3305 16.2136 54.3137 22.2304C48.2969 28.2472 44.9167 36.4077 44.9167 44.9167C44.9167 53.4257 48.2969 61.5863 54.3137 67.603C60.3305 73.6198 68.491 77 77 77Z" stroke="#4B4B4B" stroke-width="4.5" stroke-linecap="round" stroke-linejoin="round"/>
</svg>
