<svg width="241" height="94" viewBox="0 0 241 94" fill="none" xmlns="http://www.w3.org/2000/svg">
<path d="M0.6 74.7V64.1C1.06667 64.1667 1.41667 64.2 1.65 64.2C3.15 64.2 4.31667 63.7333 5.15 62.8C5.98333 61.8333 6.4 60.4667 6.4 58.7V0.499999H17.2V60.4C17.2 63.5667 16.6167 66.2167 15.45 68.35C14.3167 70.4833 12.65 72.0833 10.45 73.15C8.25 74.2167 5.58333 74.75 2.45 74.75C2.15 74.75 1.85 74.75 1.55 74.75C1.25 74.75 0.933333 74.7333 0.6 74.7ZM36.1414 74.7C32.1081 74.7 28.9414 73.35 26.6414 70.65C24.3414 67.9167 23.1914 64.4667 23.1914 60.3V32.9C23.1914 28.7333 24.3414 25.3 26.6414 22.6C28.9414 19.8667 32.1081 18.5 36.1414 18.5C40.1414 18.5 43.2914 19.8667 45.5914 22.6C47.9247 25.3 49.0914 28.7333 49.0914 32.9V60.3C49.0914 64.4667 47.9247 67.9167 45.5914 70.65C43.2914 73.35 40.1414 74.7 36.1414 74.7ZM36.1414 65.9C37.4414 65.9 38.3414 65.3833 38.8414 64.35C39.3414 63.2833 39.5914 61.9333 39.5914 60.3V32.9C39.5914 31.2333 39.3414 29.8833 38.8414 28.85C38.3414 27.8167 37.4414 27.3 36.1414 27.3C34.8414 27.3 33.9414 27.8167 33.4414 28.85C32.9414 29.8833 32.6914 31.2333 32.6914 32.9V60.3C32.6914 61.9667 32.9414 63.3167 33.4414 64.35C33.9414 65.3833 34.8414 65.9 36.1414 65.9ZM71.6742 74.8C70.2742 74.8 68.9242 74.3667 67.6242 73.5C66.3242 72.6 65.0076 71.5667 63.6742 70.4V74H53.5742V0.499999H63.6742V22.9C64.9409 21.7 66.2742 20.6667 67.6742 19.8C69.0742 18.9333 70.4076 18.5 71.6742 18.5C73.4076 18.5 74.8409 19.0333 75.9742 20.1C77.1409 21.1333 78.0076 22.4667 78.5742 24.1C79.1742 25.7333 79.4742 27.4333 79.4742 29.2V64.1C79.4742 65.8667 79.1742 67.5833 78.5742 69.25C77.9742 70.8833 77.0909 72.2167 75.9242 73.25C74.7576 74.2833 73.3409 74.8 71.6742 74.8ZM66.8742 65.3C67.6409 65.3 68.2409 64.9833 68.6742 64.35C69.1409 63.7167 69.3742 62.9333 69.3742 62V31.3C69.3742 30.3333 69.1409 29.55 68.6742 28.95C68.2409 28.3167 67.6409 28 66.8742 28C66.1409 28 65.4242 28.35 64.7242 29.05C64.0242 29.75 63.6742 30.5 63.6742 31.3V62C63.6742 62.9333 64.0242 63.7167 64.7242 64.35C65.4242 64.9833 66.1409 65.3 66.8742 65.3ZM85.4453 74V0.499999H96.2453C102.712 0.499999 107.479 2.3 110.545 5.89999C113.612 9.46666 115.145 14.7333 115.145 21.7C115.145 25.8333 114.412 29.4167 112.945 32.45C111.512 35.45 109.762 37.65 107.695 39.05L115.045 74H104.245L98.1453 43H96.2453V74H85.4453ZM96.2453 33C98.2453 33 99.8286 32.5667 100.995 31.7C102.162 30.8 102.995 29.5333 103.495 27.9C103.995 26.2667 104.245 24.3333 104.245 22.1C104.245 18.6 103.662 15.9167 102.495 14.05C101.362 12.15 99.2786 11.2 96.2453 11.2V33ZM132.188 74.8C128.154 74.8 124.971 73.4167 122.638 70.65C120.338 67.85 119.188 64.4333 119.188 60.4V32.9C119.188 28.6333 120.338 25.1667 122.638 22.5C124.938 19.8333 128.154 18.5 132.288 18.5C134.988 18.5 137.304 19.1167 139.238 20.35C141.204 21.5833 142.704 23.2667 143.738 25.4C144.771 27.5 145.288 29.9 145.288 32.6V48.5H128.588V60.4C128.588 61.7667 128.888 63.0333 129.488 64.2C130.121 65.3333 131.054 65.9 132.288 65.9C133.588 65.9 134.504 65.3667 135.038 64.3C135.604 63.2333 135.888 61.9333 135.888 60.4V54.4H145.288V60.7C145.288 64.9333 144.138 68.35 141.838 70.95C139.571 73.5167 136.354 74.8 132.188 74.8ZM128.588 40.6H135.888V32.9C135.888 31.4 135.621 30.1 135.088 29C134.588 27.8667 133.654 27.3 132.288 27.3C131.021 27.3 130.088 27.8833 129.488 29.05C128.888 30.1833 128.588 31.4667 128.588 32.9V40.6ZM157.127 74.8C154.794 74.8 152.777 73.6167 151.077 71.25C149.377 68.8833 148.527 65.2667 148.527 60.4C148.527 55.7 149.527 51.9167 151.527 49.05C153.561 46.1833 156.594 43.7 160.627 41.6C161.894 40.9333 162.961 40.3333 163.827 39.8C164.694 39.2667 165.227 38.7667 165.427 38.3V32.3C165.427 30.9333 165.261 29.7667 164.927 28.8C164.627 27.8 163.861 27.3 162.627 27.3C161.494 27.3 160.727 27.8333 160.327 28.9C159.927 29.9333 159.727 31.2333 159.727 32.8V35.4H149.627V33.1C149.627 30.1 150.211 27.5167 151.377 25.35C152.577 23.15 154.194 21.4667 156.227 20.3C158.294 19.1 160.627 18.5 163.227 18.5C165.727 18.5 167.894 19.0833 169.727 20.25C171.561 21.3833 172.977 22.9667 173.977 25C175.011 27 175.527 29.3 175.527 31.9V64.5C175.527 66.9333 175.594 68.8333 175.727 70.2C175.861 71.5333 176.027 72.8 176.227 74H166.327C165.894 73.4667 165.627 72.6833 165.527 71.65C165.461 70.6167 165.427 69.9333 165.427 69.6H164.727C163.894 71.1333 162.827 72.3833 161.527 73.35C160.261 74.3167 158.794 74.8 157.127 74.8ZM161.227 64.9C162.394 64.9 163.377 64.5 164.177 63.7C165.011 62.9 165.427 62.0333 165.427 61.1V48.1C162.994 49.1333 161.211 50.7 160.077 52.8C158.977 54.8667 158.427 57.2 158.427 59.8C158.427 60.9333 158.644 62.0667 159.077 63.2C159.511 64.3333 160.227 64.9 161.227 64.9ZM188.511 74.8C186.844 74.8 185.428 74.2833 184.261 73.25C183.094 72.2167 182.211 70.8833 181.611 69.25C181.011 67.5833 180.711 65.8667 180.711 64.1V29.2C180.711 27.4333 180.994 25.7333 181.561 24.1C182.161 22.4667 183.044 21.1333 184.211 20.1C185.378 19.0333 186.811 18.5 188.511 18.5C189.778 18.5 191.111 18.9333 192.511 19.8C193.911 20.6667 195.244 21.7 196.511 22.9V0.499999H206.611V74H196.511V70.4C195.178 71.5667 193.861 72.6 192.561 73.5C191.261 74.3667 189.911 74.8 188.511 74.8ZM193.311 65.3C194.078 65.3 194.794 64.9833 195.461 64.35C196.161 63.7167 196.511 62.9333 196.511 62V31.3C196.511 30.5 196.161 29.75 195.461 29.05C194.794 28.35 194.078 28 193.311 28C192.578 28 191.978 28.3167 191.511 28.95C191.044 29.55 190.811 30.3333 190.811 31.3V62C190.811 62.9333 191.044 63.7167 191.511 64.35C191.978 64.9833 192.578 65.3 193.311 65.3ZM215.192 93.6C214.759 93.6 214.242 93.5833 213.642 93.55C213.042 93.5167 212.459 93.45 211.892 93.35V84.4C211.992 84.4333 212.259 84.4667 212.692 84.5C213.126 84.5667 213.409 84.6 213.542 84.6C215.409 84.6 216.909 84.1 218.042 83.1C219.209 82.1 220.026 80.7667 220.492 79.1C220.659 78.6 220.742 78.0167 220.742 77.35C220.776 76.6833 220.792 76.1 220.792 75.6L211.492 19.3H221.392L225.392 53.4L225.592 57.2H225.992L226.192 53.4L230.192 19.3H240.092L230.392 78.1C230.026 81.0333 229.192 83.6667 227.892 86C226.626 88.3667 224.926 90.2167 222.792 91.55C220.659 92.9167 218.126 93.6 215.192 93.6Z" fill="#139BE4"/>
</svg>
