<svg width="494" height="187" viewBox="0 0 494 187" fill="none" xmlns="http://www.w3.org/2000/svg">
	<path d="M0.2 148.4V127.2C1.13333 127.333 1.83333 127.4 2.3 127.4C5.3 127.4 7.63333 126.467 9.3 124.6C10.9667 122.667 11.8 119.933 11.8 116.4V-2.86102e-06H33.4V119.8C33.4 126.133 32.2333 131.433 29.9 135.7C27.6333 139.967 24.3 143.167 19.9 145.3C15.5 147.433 10.1667 148.5 3.9 148.5C3.3 148.5 2.7 148.5 2.1 148.5C1.5 148.5 0.866667 148.467 0.2 148.4ZM73.2828 148.4C65.2161 148.4 58.8828 145.7 54.2828 140.3C49.6828 134.833 47.3828 127.933 47.3828 119.6V64.8C47.3828 56.4667 49.6828 49.6 54.2828 44.2C58.8828 38.7333 65.2161 36 73.2828 36C81.2828 36 87.5828 38.7333 92.1828 44.2C96.8495 49.6 99.1828 56.4667 99.1828 64.8V119.6C99.1828 127.933 96.8495 134.833 92.1828 140.3C87.5828 145.7 81.2828 148.4 73.2828 148.4ZM73.2828 130.8C75.8828 130.8 77.6828 129.767 78.6828 127.7C79.6828 125.567 80.1828 122.867 80.1828 119.6V64.8C80.1828 61.4667 79.6828 58.7667 78.6828 56.7C77.6828 54.6333 75.8828 53.6 73.2828 53.6C70.6828 53.6 68.8828 54.6333 67.8828 56.7C66.8828 58.7667 66.3828 61.4667 66.3828 64.8V119.6C66.3828 122.933 66.8828 125.633 67.8828 127.7C68.8828 129.767 70.6828 130.8 73.2828 130.8ZM146.348 148.6C143.548 148.6 140.848 147.733 138.248 146C135.648 144.2 133.015 142.133 130.348 139.8V147H110.148V-2.86102e-06H130.348V44.8C132.882 42.4 135.548 40.3333 138.348 38.6C141.148 36.8667 143.815 36 146.348 36C149.815 36 152.682 37.0667 154.948 39.2C157.282 41.2667 159.015 43.9333 160.148 47.2C161.348 50.4667 161.948 53.8667 161.948 57.4V127.2C161.948 130.733 161.348 134.167 160.148 137.5C158.948 140.767 157.182 143.433 154.848 145.5C152.515 147.567 149.682 148.6 146.348 148.6ZM136.748 129.6C138.282 129.6 139.482 128.967 140.348 127.7C141.282 126.433 141.748 124.867 141.748 123V61.6C141.748 59.6667 141.282 58.1 140.348 56.9C139.482 55.6333 138.282 55 136.748 55C135.282 55 133.848 55.7 132.448 57.1C131.048 58.5 130.348 60 130.348 61.6V123C130.348 124.867 131.048 126.433 132.448 127.7C133.848 128.967 135.282 129.6 136.748 129.6ZM175.891 147V-2.86102e-06H197.491C210.424 -2.86102e-06 219.957 3.59999 226.091 10.8C232.224 17.9333 235.291 28.4667 235.291 42.4C235.291 50.6667 233.824 57.8333 230.891 63.9C228.024 69.9 224.524 74.3 220.391 77.1L235.091 147H213.491L201.291 85H197.491V147H175.891ZM197.491 65C201.491 65 204.657 64.1333 206.991 62.4C209.324 60.6 210.991 58.0667 211.991 54.8C212.991 51.5333 213.491 47.6667 213.491 43.2C213.491 36.2 212.324 30.8333 209.991 27.1C207.724 23.3 203.557 21.4 197.491 21.4V65ZM271.375 148.6C263.308 148.6 256.942 145.833 252.275 140.3C247.675 134.7 245.375 127.867 245.375 119.8V64.8C245.375 56.2667 247.675 49.3333 252.275 44C256.875 38.6667 263.308 36 271.575 36C276.975 36 281.608 37.2333 285.475 39.7C289.408 42.1667 292.408 45.5333 294.475 49.8C296.542 54 297.575 58.8 297.575 64.2V96H264.175V119.8C264.175 122.533 264.775 125.067 265.975 127.4C267.242 129.667 269.108 130.8 271.575 130.8C274.175 130.8 276.008 129.733 277.075 127.6C278.208 125.467 278.775 122.867 278.775 119.8V107.8H297.575V120.4C297.575 128.867 295.275 135.7 290.675 140.9C286.142 146.033 279.708 148.6 271.375 148.6ZM264.175 80.2H278.775V64.8C278.775 61.8 278.242 59.2 277.175 57C276.175 54.7333 274.308 53.6 271.575 53.6C269.042 53.6 267.175 54.7667 265.975 57.1C264.775 59.3667 264.175 61.9333 264.175 64.8V80.2ZM323.255 148.6C318.588 148.6 314.555 146.233 311.155 141.5C307.755 136.767 306.055 129.533 306.055 119.8C306.055 110.4 308.055 102.833 312.055 97.1C316.121 91.3667 322.188 86.4 330.255 82.2C332.788 80.8667 334.921 79.6667 336.655 78.6C338.388 77.5333 339.455 76.5333 339.855 75.6V63.6C339.855 60.8667 339.521 58.5333 338.855 56.6C338.255 54.6 336.721 53.6 334.255 53.6C331.988 53.6 330.455 54.6667 329.655 56.8C328.855 58.8667 328.455 61.4667 328.455 64.6V69.8H308.255V65.2C308.255 59.2 309.421 54.0333 311.755 49.7C314.155 45.3 317.388 41.9333 321.455 39.6C325.588 37.2 330.255 36 335.455 36C340.455 36 344.788 37.1667 348.455 39.5C352.121 41.7667 354.955 44.9333 356.955 49C359.021 53 360.055 57.6 360.055 62.8V128C360.055 132.867 360.188 136.667 360.455 139.4C360.721 142.067 361.055 144.6 361.455 147H341.655C340.788 145.933 340.255 144.367 340.055 142.3C339.921 140.233 339.855 138.867 339.855 138.2H338.455C336.788 141.267 334.655 143.767 332.055 145.7C329.521 147.633 326.588 148.6 323.255 148.6ZM331.455 128.8C333.788 128.8 335.755 128 337.355 126.4C339.021 124.8 339.855 123.067 339.855 121.2V95.2C334.988 97.2667 331.421 100.4 329.155 104.6C326.955 108.733 325.855 113.4 325.855 118.6C325.855 120.867 326.288 123.133 327.155 125.4C328.021 127.667 329.455 128.8 331.455 128.8ZM388.022 148.6C384.689 148.6 381.855 147.567 379.522 145.5C377.189 143.433 375.422 140.767 374.222 137.5C373.022 134.167 372.422 130.733 372.422 127.2V57.4C372.422 53.8667 372.989 50.4667 374.122 47.2C375.322 43.9333 377.089 41.2667 379.422 39.2C381.755 37.0667 384.622 36 388.022 36C390.555 36 393.222 36.8667 396.022 38.6C398.822 40.3333 401.489 42.4 404.022 44.8V-2.86102e-06H424.222V147H404.022V139.8C401.355 142.133 398.722 144.2 396.122 146C393.522 147.733 390.822 148.6 388.022 148.6ZM397.622 129.6C399.155 129.6 400.589 128.967 401.922 127.7C403.322 126.433 404.022 124.867 404.022 123V61.6C404.022 60 403.322 58.5 401.922 57.1C400.589 55.7 399.155 55 397.622 55C396.155 55 394.955 55.6333 394.022 56.9C393.089 58.1 392.622 59.6667 392.622 61.6V123C392.622 124.867 393.089 126.433 394.022 127.7C394.955 128.967 396.155 129.6 397.622 129.6ZM443.384 186.2C442.518 186.2 441.484 186.167 440.284 186.1C439.084 186.033 437.918 185.9 436.784 185.7V167.8C436.984 167.867 437.518 167.933 438.384 168C439.251 168.133 439.818 168.2 440.084 168.2C443.818 168.2 446.818 167.2 449.084 165.2C451.418 163.2 453.051 160.533 453.984 157.2C454.318 156.2 454.484 155.033 454.484 153.7C454.551 152.367 454.584 151.2 454.584 150.2L435.984 37.6H455.784L463.784 105.8L464.184 113.4H464.984L465.384 105.8L473.384 37.6H493.184L473.784 155.2C473.051 161.067 471.384 166.333 468.784 171C466.251 175.733 462.851 179.433 458.584 182.1C454.318 184.833 449.251 186.2 443.384 186.2Z" fill="white"/>
</svg>
