<svg width="121" height="121" viewBox="0 0 121 121" fill="none" xmlns="http://www.w3.org/2000/svg">
<path d="M37.576 96.672V86.496C38.024 86.56 38.36 86.592 38.584 86.592C40.024 86.592 41.144 86.144 41.944 85.248C42.744 84.32 43.144 83.008 43.144 81.312V25.44H53.512V82.944C53.512 85.984 52.952 88.528 51.832 90.576C50.744 92.624 49.144 94.16 47.032 95.184C44.92 96.208 42.36 96.72 39.352 96.72C39.064 96.72 38.776 96.72 38.488 96.72C38.2 96.72 37.896 96.704 37.576 96.672ZM60.2638 96V42.345H68.1478C72.8684 42.345 76.3481 43.659 78.5868 46.287C80.8254 48.8907 81.9448 52.7353 81.9448 57.821C81.9448 60.8383 81.4094 63.4542 80.3388 65.6685C79.2924 67.8585 78.0149 69.4645 76.5063 70.4865L81.8718 96H73.9878L69.5348 73.37H68.1478V96H60.2638ZM68.1478 66.07C69.6078 66.07 70.7636 65.7537 71.6153 65.121C72.4669 64.464 73.0753 63.5393 73.4403 62.347C73.8053 61.1547 73.9878 59.7433 73.9878 58.113C73.9878 55.558 73.5619 53.5992 72.7103 52.2365C71.8829 50.8495 70.3621 50.156 68.1478 50.156V66.07Z" fill="#139BE4"/>
<circle cx="60.5" cy="60.5" r="59.25" stroke="#139BE4" stroke-width="1.5"/>
</svg>
